<?xml version="1.0" encoding="utf-8"?>
<!-- Generator: Adobe Illustrator 25.2.3, SVG Export Plug-In . SVG Version: 6.00 Build 0)  -->
<svg version="1.1" id="IN3BUvYF_x5F_400x400_xA0_Imagen_1_"
	 xmlns="http://www.w3.org/2000/svg" xmlns:xlink="http://www.w3.org/1999/xlink" x="0px" y="0px" viewBox="0 0 400 400"
	 style="enable-background:new 0 0 400 400;" xml:space="preserve">
<style type="text/css">
	.st0{display:none;fill:#FEFEFE;}
	.st1{fill:#B1B1B1;}
	.st2{fill:#B0B0B0;}
	.st3{fill:#868686;}
	.st4{fill:#AFAFAF;}
	.st5{fill:#838383;}
	.st6{fill:#8E8E8E;}
	.st7{fill:#868180;}
	.st8{fill:#888181;}
	.st9{fill:#FE7603;}
	.st10{fill:#E5964C;}
	.st11{fill:#E9954B;}
	.st12{fill:#FB9032;}
	.st13{fill:#F8F8F8;}
	.st14{fill:#FAFAFA;}
	.st15{fill:#F9F9F9;}
	.st16{fill:#F6F6F6;}
	.st17{fill:#F5F5F5;}
	.st18{fill:#F1F1F1;}
	.st19{fill:#F2F2F2;}
	.st20{fill:#EBEBEB;}
	.st21{fill:#ECECEC;}
	.st22{fill:#F0F0F0;}
	.st23{fill:#8B8B8B;}
	.st24{fill:#AEAEAE;}
	.st25{fill:#F97C1A;}
	.st26{fill:#F87D1C;}
	.st27{fill:#FE7806;}
	.st28{fill:#E6993A;}
	.st29{fill:#B2B2B2;}
	.st30{fill:#B4B4B4;}
	.st31{fill:#BDBDBD;}
</style>
<g>
	<path class="st0" d="M199.5,396.4c-65.11,0-130.22-0.03-195.33,0.09c-3.29,0.01-4.16-0.48-4.16-4.02C0.13,261.9,0.13,131.33,0,0.76
		c0-3.78,0.99-4.27,4.42-4.27c130.39,0.1,260.77,0.1,391.16,0c3.44,0,4.42,0.5,4.42,4.27c-0.13,130.57-0.13,261.14-0.01,391.71
		c0,3.55-0.88,4.03-4.16,4.02C330.39,396.37,264.94,396.4,199.5,396.4z"/>
	<path class="st1" d="M381.86,258.62c2.81,0.06,1.93,2.23,1.95,3.67c0.1,5.33-0.23,10.68,0.12,15.98c0.29,4.32-1.4,5.24-5.42,5.22
		c-34.48-0.15-68.95-0.1-103.43-0.1c-83.61,0-167.22,0.01-250.83,0.01c-7.08,0-7.09-0.01-7.15-7.07c-0.04-4.66,0.14-9.33-0.08-13.99
		c-0.15-3.15,1.11-3.95,4.07-3.94c35.97,0.13,71.95,0.16,107.92,0.22c1.01,2.63-1.04,2.9-2.68,3.43c-0.79,0.25-1.58-0.49-2.4-0.08
		c0.75,0.97,1.08,2.29,2.32,2.86c-1.82,2.34-4.82,4.05-3.86,7.82c0.29,1.13,0.38,2.23,1.5,2.93c2.92,1.84,10.97,0.26,13.31-2.66
		c1.32-2.03,0.32-4.2,0.36-6.3c0.02-1.21-0.78-3,1.2-3.13c1.5-0.1,2.12,1.44,2.32,2.8c0.36,2.46,0.86,4.88,1.6,7.21
		c0.3,0.27,0.91,0.94,0.89,0.05c-0.1-3.38,0.99-6.19,3.38-8.52c-0.46-0.9-1.46-1.57-1.15-2.78c3.49-2.31,9.75-2.46,11.88-0.29
		c-0.01,0.33-0.07,0.65-0.2,0.95c-0.53,1.27-1.79,0.87-2.74,1.18c1.1-0.05,2.26-0.55,3.21,0.45c-1.42,2.48-4.43,4.02-3.9,7.71
		c0.26,1.83,0.57,3.19,2.24,4.02c0.46,0.49,0.84-0.56,0.41-0.05c-0.04,0.05-0.1-0.06-0.26-0.15c-1.26-0.7-2.25-1.65-1.67-3.18
		c0.46-1.23,1.75-1.44,2.92-1.58c1.99-0.24,4.01-0.28,5.98-0.11c2.91,0.25,4.37-1.03,4.74-3.8c0.46-1.59-0.54-3.26,0.28-4.83
		c0.35-0.33,0.77-0.48,1.25-0.45c2.17,0.88,2.14,3.01,2.66,4.82c-0.23-1.47-0.84-2.88-0.31-4.4c3.37-3.64,6.97-3.65,9.89-0.03
		c-0.8,1.25-2.02,2.05-3.14,2.97c-2.29,1.14-3.9,2.46-3.83,5.54c0.09,3.49,1.11,5.24,4.81,5.11c2.61-0.09,5.26-0.2,7.86,0.4
		c1.48,0.59,3.32,0.57,4.12,2.4c-0.95,1.68-2.53,0.7-3.81,0.95c-0.17,0.51-0.08,0.23,0.37,0.18c4.08-0.42,8.12-1.24,12.29-0.6
		c2.37,0.36,4.52-0.77,6.25-2.5c1.97-1.11,4.15-0.75,6.25-0.83c4.89-0.2,5.7-0.94,5.8-5.69c0.04-1.68,0.21-3.26,1.17-4.68
		c2.03-1.12,3.62-0.08,5.19,1.05c0.81,1.71,0.85,3.52,0.55,5.33c-0.41,2.43,0.65,3.77,2.96,4.37c-1.33-0.9-3.12-1.61-2.31-3.63
		c0.65-1.64,2.38-1.54,3.84-1.68c3.78-0.37,8.01,1.08,10.94-2.72c2.13-0.7,2.73,1.36,4,2.21c1.41,0.95,2.24,3.5,4.34,2.45
		c1.57-0.79,0.77-2.98,1.18-4.72c0.21-0.41-0.86-0.12-0.2-0.01c0.19,0.03,0.1,0.17-0.01,0.49c-0.95,2.78-2.93,3.12-5.02,1.66
		c-2.03-1.43-0.79-2.79,0.72-3.85c0.41-0.29,0.87-0.67,0.89-1.14c0.33-6.44,4.64-5.51,8.83-4.83c1.37,0.46,2.99,0.47,3.91,2.54
		c-7.52,1.27-6.23,6.74-5.58,11.9c0.91,1.22-0.07,3.76,2.64,3.7c2.62,0.52,4.42-1.22,6.45-2.33c1.66-0.4,3.29-0.56,4.82,0.42
		c1.94,4.67-2.41,2.31-3.36,3.28c5.14-0.63,5.23-0.72,3.53-3.38c1.55-3.17,0.31-6.78,1.62-9.97c2.79-1.46,2.95,0.65,2.96,2.39
		c0.02,2.04,0.25,3.89,1.76,5.39c0.24,0.38,0.4,0.8,0.51,1.24c0.2,2.9,2.67,2.12,4.33,2.65c8.34,0.12,16.75,1.84,24.95-1.12
		c0.85-0.31,1.67-0.22,2.4,0.14c3.73,1.84,7.71,1.28,11.66,1.54c6.56,0.45,12.51-2.87,18.97-2.56c0.98-0.15,1.94-0.13,2.83,0.37
		c1.22,1.07,0.63,2.01-0.21,2.93c2.43-1.1,5.81,0.21,7.45-2.92c0.68-0.28,1.37-0.3,2.08-0.12c3.71,3.39,4.17,3.41,7.36,3.38
		c2.8-0.02,4.08-1.84,5.51-3.69c1.11-1.43,2.82-1.49,2.59,0.42c-0.38,3.18,1.25,2.39,2.96,2.27c2.16-0.15,4.33-0.07,6.49-0.07
		c2.1,0,3.12-0.87,2.78-3.04c0.07-0.58,0.53-0.86,0.91-1.21c-0.59,0.13-0.7,0.71-1.04,1.1c-4.82,1.81-8.47-0.17-8.44-4.53
		c0.01-1.24,0.33-2.36,1.52-2.9c1.44-0.66,2.08,0.41,2.69,1.44c0.69,1.17,0.84,3.19,3.06,1.98c0.55-0.33,1.07-0.69,1.56-1.1
		c1.44-1.73,0.9-3.74,0.83-5.69c-0.07-1.98-0.21-3.98,1.26-5.62C380.61,259.18,381.25,258.92,381.86,258.62z"/>
	<path class="st2" d="M377.9,275.46c0.84,1.13,2.54,1.92,1.78,3.72c-0.77,1.83-2.52,1.17-3.91,1.26c-3.92,0.24-7.89-0.52-11.87,0.72
		c-0.37-1.7,1.84-2.87,0.63-4.74c-1.91,1.91-2.52,5.45-6.34,5.08c-2.89-0.27-5.82-0.05-9.61-0.05c2.01-1.6,3.78-2.43,1.35-3.84
		c2.13-2.3,4.95-1.26,7.47-1.43c2.15-0.15,3.56-0.97,3.87-3.01c0.34-2.23,0.76-4.64-1.39-6.38c-0.39-0.31-0.92-0.32-1.41-0.38
		c0.24,0.53,1.01,0.46,1.21,1.03c0.51,1.45-0.69,1.64-1.55,1.92c-1.59,0.52-3.27,0.33-4.91,0.37c-7.15,0.17-7.84,1.2-5.3,7.82
		c-0.53,1.67-0.77,3.38-3.41,2.98c-2.19-0.34-4.52-0.4-6.81,0.98c0.2-2.57,3.66-1.69,3.2-4.18c-0.65-1.64,1.47-3.49-0.39-5.04
		c-2.62-1.27-5.57-0.1-8.21-1.13c-1.23-0.48-2.59-1-2.68-2.55c-0.1-1.77,1.35-1.99,2.67-2.21c0.65-0.15-0.3-0.93,0.07-0.38
		c0.05,0.08-0.08,0.29-0.39,0.27c-3.85-0.29-3,3.05-3.91,5.03c-2.72,0.59-2.87-1.46-3.19-3.2c-0.3-1.61,0.13-3.24,0.33-5.08
		c-2.61,1.11-5.04,1.55-7.39,2.24c-1.17,0.27-2.33,0.3-3.49-0.02c-1.92-1.67-3.97-1.67-6.07-0.41c-1.38,0.83,0.99,0.87,0.36,1.58
		c0.06,2.14-0.51,4.24-0.2,6.97c0.57-2.96-0.18-6.19,3.35-6.9c2.75-0.55,5.57-0.7,8.27,0.27c1.62,0.58,1.75,2.16,2.15,3.61
		c0.38,1.4-0.87,3.43,1.44,4.13c1.25-1.55,2.46-3.12,4.64-3.35c1.03-0.41,1.77,0.04,2.43,0.77c0.69,0.94,1.01,1.98,0.82,3.15
		c1.47,2.55,4.97-0.04,6.43,2.53c-10.36,1.28-20.67,5.66-31.14,1.01c-2.49-1.11-1.79,1.9-3.31,1.77
		c-8.16-0.71-16.41,1.11-24.52-0.93c-0.7-0.74-1.54-1.38-1.84-2.42c-1.46-5.31-0.45-9.74,4.58-12.72c3.05-1.31,4.19,0.14,3.26,2.85
		c-0.74,2.17,1.3,0.74,1.43,1.52c1.79,5.95,1.79,5.95,4.26,7.67c0.52,0.42,0.77-0.74,0.46-0.14c-0.09,0.17-0.22,0.08-0.49-0.05
		c-1.3-0.61-2.34-1.52-1.96-3.03c0.38-1.52,1.87-1.68,3.2-1.84c1.48-0.17,2.96-0.09,4.45-0.11c5.99-0.09,6.36-0.75,3.43-6.14
		c0.68-1.2,1.96-2.49-0.54-3.18c1.06,0.87,1.91,1.76,0.45,2.99c-1.52,1.05-3.18,0.9-4.85,0.54c-2.21-1.49-4.79-2.01-7.28-2.79
		c-1.36-0.77-2.89-0.69-4.36-0.89c-0.42,0-0.84-0.03-1.26-0.05c-1.05-0.03-2.05,0.18-3.02,0.56c-1.45,0.41-2.69,1.27-4.06,1.87
		c-2.39,1.02-3.52-1.57-5.45-1.87c-2.55,0.6-5.08,1.5-7.71,0.38c-1.67-1.44-3.91-0.07-5.65-1.15c-1.38-0.19-2.61,1.38-4.21,0.02
		c-1.11-0.95-2.29,0.09-2.62,1.28c-0.61,2.2,0.92,5.44-3.31,5.74c-0.61,0.04,0.1,1.45,0.93,1.69c1.36,0.39,2.66,0.42,3.12-1.39
		c0.38-1.49-0.6-3.38,1.7-4.72c0.67,4.05,0.47,7.84,0.11,11.81c-4.51-1.16-6.75-4.82-9.85-7.35c-0.16-0.16-0.32-0.33-0.48-0.49
		c-1.35-2.06-0.4-3.75,0.85-5.37c-0.14-0.66-0.68-0.81-1.24-0.92c-2.55-0.34-4.8,0.31-6.74,2c-4.2-1.73-8.7-1.25-13.06-1.79
		c-0.99-0.17-1.93-0.22-2.43,0.92c-1.8,4.06-5.09,2.79-8.16,2.29c-0.71-0.18-1.07-2.88-2.17-0.28c-1.1,1.16-2.61,1.61-3.94,2.36
		c-2.12,0.76-1.41,2.15-0.79,3.53c-0.66,3.12,1.18,5.03,3.29,6.8c-0.7,3.4-3.94,3.93-6.01,3.47c-4.61-1.03-9.21-0.09-14.08-0.81
		c1.23-1.4,2.84-0.35,4.15-1.13c-1.07-0.58-2.06-1.11-3.05-1.64c0.1-1.13,0.91-1.94,1.33-2.92c0.73-2.55,0.73-5.15,0.63-7.75
		c-0.16-1.05-0.48-2.09-0.35-3.16c0.22-0.79,0.2-1.43-0.92-1.33c-0.95,0.14-1.89,0.21-2.82,0.42c-0.95,0.23-1.68,1.02-2.71,1.02
		c-0.63-0.21-1.02-0.64-1.15-1.3c-3-2.53-6-1.03-9,0c-1,0.23-2,0.07-3,0c-0.33,0-0.67,0-1,0c-2.32,0.55-4.53-0.23-6.77-0.59
		c-0.45-0.01-0.9-0.02-1.34-0.02c-1.3-0.03-2.7,0.78-3.88-0.39c-3.59,1.15-7.44-0.52-10.99,1c-0.57,0.03-1.13,0.04-1.69,0.11
		c-1.31,0.5-1.57,1.58-1.56,2.81c0.05,0.44,0.06,0.87,0.07,1.31c-0.51,2.57,1.41,5.45-0.99,7.77c-1.92-3.11-1.24-6.94-3.32-10.09
		c0.34,2.38,0.59,4.78,1.05,7.14c0.27,1.37-0.36,1.77-1.47,1.96c-1.97-2.52-1.23-6.84-5.32-7.92c-0.72-1.49-1.67-0.97-2.64-0.27
		c-1.45,0.35-2.84,0.44-3.99-0.75c-2.45,0.91-2.1-2.91-4.32-2.47c1.94-2.21,6.3,0.84,7.18-3.42c0.36-0.01,0.71-0.01,1.07-0.02
		c1.6,0.68,3.29,0.36,4.93,0.36c23.96,0.02,47.92,0.02,71.86,0.01c2.16,0.52,4.34,0.51,6.54,0c54.04,0,108.06-0.01,162.08,0.02
		c1.79,0,3.66-0.46,5.39,0.46c-1.37,2.43-0.99,4.99-0.76,7.62c0.16,1.83,0.43,3.91-1.46,5.28c-0.62-0.66-1.23-1.08-1.77,0.07
		c-0.11,1.37-0.79,2.32-2.19,1.77c-1.34-0.52-2.68-1.4-2.48-3.21c0.11-1.04,0.29-2.14-1.25-1.77c-0.85,0.21-0.99,1.2-0.96,2.06
		C370.14,274.91,373.04,276.45,377.9,275.46L377.9,275.46z"/>
	<path class="st3" d="M185,209.31c0-1.49,0.1-3.21-1.79-3.66c-1.64-0.39-3.34-0.31-4.58,1.18c-0.64,0.77-1.26,1.55-1.86,2.34
		c-5.94,7.8-12.03,15.5-17.76,23.46c-2.44,3.4-3.79,3.1-6.05-0.09c-3.56-5.01-7.53-9.73-11.34-14.57c-2.88-3.66-5.78-7.3-8.68-10.94
		c-1.04-1.31-2.43-1.7-4.01-1.37c-1.32,0.27-1.93,1.17-1.93,2.51c0,10.32,0,20.64,0.01,30.95c0,1.29,0.43,2.26,1.97,2.32
		c1.56,0.07,2.64-0.57,2.89-2.11c0.21-1.3,0.16-2.65,0.16-3.98c0.01-6.74,0.01-13.48,0.01-21.51c2.05,2.47,3.34,3.89,4.49,5.42
		c4.92,6.49,9.74,13.04,14.7,19.49c3,3.91,6.52,3.89,9.4,0.07c2.1-2.78,4.06-5.67,6.16-8.45c3.9-5.16,7.85-10.28,11.78-15.41
		c1.01,3.1,1.03,5.71,1,8.32c-0.05,4.99-0.19,9.98-0.16,14.96c0.01,1.76,0.59,3.23,2.89,3.24c2.34,0.01,2.71-1.31,2.71-3.22
		C184.99,228.61,185.02,218.96,185,209.31z"/>
	<path class="st4" d="M380.9,259.46c-56.64,0-113.27,0-169.91,0c-0.67,0.62-1.33,0.58-2,0c-24.55,0-49.11,0.01-73.66-0.03
		c-1.75,0-3.68,0.63-5.23-0.83c2.16-0.05,4.33-0.13,6.49-0.13c79.6-0.01,159.19-0.01,238.79,0c2.16,0,4.32,0.1,6.49,0.15
		C381.54,258.9,381.22,259.18,380.9,259.46z"/>
	<g>
		<path class="st5" d="M290.1,215.53c-2.2,0.03-2.14,1.62-2.15,3.14c-0.01,3.14,0,6.29,0,9.43c0,3.47,0.01,6.95-0.01,10.42
			c-0.01,1.64,0.21,2.99,2.35,2.92c1.9-0.06,2.63-1.13,2.63-2.87c0.01-6.62,0-13.24,0.02-19.86
			C292.95,216.78,292.26,215.51,290.1,215.53z"/>
		<path class="st5" d="M290.02,207.49c-1.69,0-2.87,0.49-2.97,2.44c-0.12,2.42,1.43,2.61,3.44,2.52c1.65,0.13,3.28-0.39,3.16-2.53
			C293.53,207.85,291.81,207.49,290.02,207.49z"/>
	</g>
	<path class="st6" d="M371.94,225.5c-5.14-0.19-10.3,0.06-15.44-0.19c-1.9-0.09-4.01-0.69-4.49-3.19c-0.45-2.36,0.89-3.33,2.89-3.8
		c3.26-0.31,6.67,1.04,9.77-0.92c0,0,0,0,0,0c0,0,0,0,0,0c1.12-0.93,1.25-1.9,0.09-2.9c-3.61-1.62-7.23-1.26-10.85-0.01
		c-4.11,0.26-6.83,1.85-7.06,6.51c-0.24,4.93,2.16,7.67,6.75,8.09c5.11,0.47,10.27,0.32,15.42,0.38c2.92,0.03,6.1-0.14,5.92,4.04
		c-0.17,3.9-3.2,3.4-5.91,3.37c-6.31-0.08-12.62-0.09-18.93,0c-1.47,0.02-3.15,0.34-3.32,2.3c-0.15,1.68,0.94,2.31,2.51,2.3
		c7.97-0.05,15.95,0.14,23.91-0.23c3.98-0.18,6.78-2.37,6.95-6.96C380.38,228.55,377.94,225.72,371.94,225.5z"/>
	<path class="st7" d="M106.96,165.74c0.14-1.26-0.08-2.63,1.47-3.56c-1.57,2.03,2.59,3.41,0.3,5.5
		C108.14,167.03,107.55,166.39,106.96,165.74z"/>
	<path class="st8" d="M122.04,177.5c1.24,1.19,2.18,2.35-0.32,3.16c-0.6-0.63-1.21-1.25-1.81-1.88c0.38-0.43,0.75-0.86,1.13-1.28
		C121.38,177.03,121.71,177.01,122.04,177.5z"/>
	<path class="st9" d="M378.97,188.42L378.97,188.42C378.97,188.42,378.97,188.42,378.97,188.42L378.97,188.42L378.97,188.42
		c-3.24-5.09-8.3-3.94-13.06-3.81v0c-1.34,0.01-2.68,0.02-4.02,0.03c0,0,0,0,0,0c-1.32,0-2.63,0.01-3.95,0.01c0,0,0,0,0,0
		c-1.35-0.05-2.7-0.11-4.05-0.16c0,0,0,0,0,0c0,0,0,0,0,0c-0.99-0.63-1.98-1.26-2.97-1.89v0c-1.58-1.4-0.6-3.27-0.9-4.91
		c4.19-1.26,8.51-1.03,12.81-1.06c1.19-0.01,2.48-0.3,2.48-1.79c0-0.98-0.67-2.21-1.72-2.17c-4.77,0.19-10-1.82-13.95,2.68l0,0
		c-5.34,1.33-3.89,4.98-2.9,8.47c0,0,0,0,0,0c0.1,0.77,0.44,1.37,1.19,1.68c1.49,2,3.46,2.98,5.98,2.8
		c1.34,0.02,2.68,0.04,4.02,0.06c1.32,0.01,2.64,0.02,3.96,0.03c0,0,0,0,0,0c1.34,0.01,2.68,0.01,4.02,0.02c0,0,0,0,0,0l0,0
		c1.68-0.02,3.35-0.04,5.03-0.05c1.27,0.73,2.54,1.45,3.81,2.18l0,0c0.41,2.03,0.24,3.95-1.09,5.65c-1.92,0.15-3.84,0.3-5.75,0.46
		c-6.12-0.04-12.23-0.14-18.35-0.08c-1.43,0.01-3.82-0.82-3.67,1.88c0.11,2.04,1.96,2.31,3.74,2.28c6.11-0.1,12.22-0.15,18.33-0.22
		l0,0c1.3-0.03,2.6-0.06,3.9-0.1c0,0,0,0,0,0c1.64-0.08,3.66,0.72,4.24-1.83c0.25,0,0.49-0.05,0.72-0.15c0,0,0,0,0,0
		C381.85,196.03,380.33,192.21,378.97,188.42z"/>
	<path class="st10" d="M100.05,180.5c0.67,0,1.34,0,2,0c1.55-0.16,1.95,1.39,2.97,2.01C103.06,185.04,102.41,184.78,100.05,180.5z"
		/>
	<path class="st11" d="M105.96,187.77c1.89-1.71,3.09-1.48,4.55,0.06C109.06,188.82,107.83,188.53,105.96,187.77z"/>
	<path class="st12" d="M103.75,188.49c-0.49-0.31-1.1-0.47-1.17-0.77c-0.21-0.8,0.44-1.11,1.08-1.02c0.34,0.04,0.83,0.48,0.87,0.79
		C104.56,187.77,104.07,188.11,103.75,188.49z"/>
	<path class="st13" d="M203.85,266.5c1.38-0.65,2.76-1.3,4.14-1.96c0.66-0.66,1.32-0.7,1.97,0c1.46,0.02,2.95-0.15,4.37,0.09
		c2.75,0.48,3.56-0.98,3.7-3.3c2.02-0.84,2.8,0.49,3.48,1.99c0.16,0.8,0.07,1.54-0.58,2.11c-1.52,11.7-1.52,11.7-13.94,12.14
		c-5.39-0.11-4.04-3.94-3.91-7.09C202.91,269.08,203.12,267.74,203.85,266.5z"/>
	<path class="st14" d="M57.32,277.54c-1.92-2.3-1.22-4.37-1.19-6.24c0.04-2.64-0.68-4.04-3.62-3.99c-2.78,0.05-4.4,0.84-4.37,3.98
		c0.02,1.87,0.68,3.93-0.89,5.9c-2.04-1.56-1.24-3.71-1.2-5.46c0.08-3.23-1.25-4.38-4.43-4.44c-3.51-0.06-3.47,1.98-3.59,4.51
		c-0.08,1.77,1.09,5.11-1.24,4.98c-2.53-0.14-1.49-3.58-1.46-5.56c0.08-5.05,2.35-6.87,7.32-6.07c2.74,0.44,5.32,1.04,8.2,0.05
		c2.3-0.79,5.64-0.65,6.71,1.64C58.99,269.92,59.94,273.64,57.32,277.54z"/>
	<path class="st13" d="M270.88,266.47c-0.31,3.71,1.83,7.87-1.98,10.95l0.03-0.02c-2,0.07-4,0.13-6.01,0.2
		c-1.71,1.32-4.11,0.51-5.79,1.89c-1.03,1.87-1.98,2.16-2.63-0.21c-0.25-0.91-0.32-1.86-0.48-2.8c-1.09-1.86-0.47-3.89-0.5-5.82
		c-0.06-3.54,1.22-5.71,5.26-6.44C263.28,263.42,267.5,262.09,270.88,266.47z"/>
	<path class="st15" d="M347.92,277.55c-2.62-1.31-3.71-3.51-2.76-6.19c0.92-2.6,3.45-2.81,5.85-2.83c2.65-0.02,5.31-0.01,8.31-0.01
		c-1.33-2.02-4.04-0.33-4.89-2.75c2.25-2.29,4.69-0.81,6.56,0.38c2.88,1.84,2.02,5.03,1.57,7.77c-0.35,2.16-1.75,3.51-4.16,3.52
		c-2.83,0.01-5.65,0.1-8.48,0.16C349.25,277.59,348.58,277.57,347.92,277.55z"/>
	<path class="st16" d="M132.93,264.75c5.59,0.6,5.07,4.84,5.19,8.71c-2.26,4.01-12.32,5.85-15.63,2.86
		c-3.4-3.07-1.41-9.43,3.69-11.8c1.63,0,3.26,0,4.88,0C131.76,263.89,132.41,263.83,132.93,264.75z"/>
	<path class="st13" d="M190.09,275.41c-0.7,0.69-1.39,1.38-2.09,2.06c-2.32,0-4.65,0.08-6.97-0.02c-2.84-0.13-6.5,0.84-7.01-3.49
		c-0.49-4.1-1.08-8.61,4.97-9.43c0.76-0.73,1.71-0.92,2.71-0.95c0.95,0.18,1.91,0.49,2.88,0.07c0.5-0.03,0.99,0.01,1.48,0.11
		c1.21,0.36,2.44,0.69,3.47,1.49c0.54,0.6,0.88,1.31,1.01,2.11C190.32,270.04,190.88,272.76,190.09,275.41z"/>
	<path class="st14" d="M241.85,268.54c-0.5,3.16-2.25,4.54-5.47,3.93c-0.48-0.09-1-0.07-1.48,0.01c-2.45,0.43-6.52-1.35-7.06,1.12
		c-0.69,3.16,4.22,0.55,5.59,2.83c-6.1,2.27-8.49,0.84-8.53-5.01c-0.01-1.65,0.02-3.3,0.03-4.95c0.97-3.14,3.8-2.8,6.01-2.73
		c1.82,0.06,3.54-0.17,5.3-0.35c3.19,0.27,4.83,2.26,5.67,5.13L241.85,268.54z"/>
	<path class="st14" d="M169.92,267.72c-0.44,3.72-2.25,5.62-6.22,4.75c-0.47-0.1-1.01-0.08-1.49,0c-2.19,0.4-6-1.12-6.29,0.85
		c-0.53,3.58,4.09,0.97,6.43,3.87c-3.88,0.22-7.07,1.38-9.03-2.36c-2.13-4.08,0.06-8.48,4.77-10.33c0.18-0.19,0.36-0.38,0.54-0.57
		c0.95-0.55,1.99-0.66,3.06-0.64C164.76,264.16,168.92,263.02,169.92,267.72z"/>
	<path class="st15" d="M70.85,277.48c-7.34,0-7.86-0.41-7.86-6.19c0-5.43,1.68-6.77,8.33-6.66c6.52,0.11,7.84,1.22,7.85,6.63
		C79.16,277.15,78.72,277.48,70.85,277.48z"/>
	<path class="st4" d="M270.88,266.47c-0.6-0.29-1.17-0.64-1.8-0.85c-10.25-3.44-14.74-0.19-15.06,10.87
		c-2.17-3.37-1.06-7.09-0.82-10.59c0.23-3.36,3.55-2.05,5.93-2.66c-1.2-0.67-2.18-1.22-3.16-1.77c2,0.05,4-0.82,6,0
		c2.66,2.25,5.33,1.79,7.99,0c1.85,0.2,2.75,2.8,5,2c1.57,0.6,1.9,1.89,1.88,3.37c-0.93,2.81,0.31,6.08-1.84,8.63
		c-2.75-0.8-3.42-2.79-2.99-5.35C272.25,268.67,272.99,267.14,270.88,266.47z"/>
	<path class="st17" d="M100.08,271.36c0,1.22,0.08,1.9-0.02,2.55c-0.17,1.18,0.58,3.19-1.39,3.06c-1.53-0.1-1.53-1.97-1.46-3.29
		c0.21-3.72,0.39-6.68-5.16-6.54c-4.82,0.12-6.68,1.4-6.03,6.22c0.17,1.23,0.87,3.61-1.27,3.59c-1.8-0.02-1.56-2.25-1.52-3.69
		c0.09-2.87-0.98-6.38,2.85-7.69c4.35-1.48,8.9-1.85,12.97,0.72C100.99,267.5,99.69,270.02,100.08,271.36z"/>
	<path class="st18" d="M118.82,266.54c-5.92,0.05-4.68,4.2-4.81,7.65c-0.05,1.21,0.37,3.03-1.6,2.94c-1.53-0.07-1.58-1.77-1.26-2.74
		c1.19-3.61-2.27-6.97-0.33-10.65c1.01-1.92,1.74-3.79,3.18-0.56C114.95,265.31,117.55,263.84,118.82,266.54z"/>
	<path class="st4" d="M237.01,264.53c-4.09,0.21-8.28-0.16-12.07,1.93c-1.79,1.45-2.85,0.04-4-1.03c0-0.61,0-1.22-0.01-1.83
		c-0.55-1.06-0.68-2.11,0.06-3.15c1.33,0.68,2.67,1.28,4.21,0.81c3.36-1.02,6.3-0.32,8.78,2.19
		C235.37,262.74,236.72,262.14,237.01,264.53z"/>
	<path class="st19" d="M141.86,274.46c0.79-2.93-1.37-5.96,0.28-8.86c1.69-1.83,3.69-2,5.9-1.11c0.7,0.56,2.13,1.83,1.02,2.01
		c-5.54,0.91-3.83,5.06-4.2,8.32c-0.11,0.99-0.35,2.19-1.49,2.23C141.63,277.1,142.19,275.44,141.86,274.46z"/>
	<path class="st18" d="M275,275.46c0.34-3.01-0.53-6.15,0.95-9.04c0.79-1.03,1.56-2.09,2.89-2.51c0.64-0.22,1.29-0.28,1.96-0.16
		c0.43,0.14,0.78,0.39,1.06,0.75c0.45,0.81,1.42,2.33,0.31,2.42c-5.98,0.45-3.76,4.86-4.17,8c-0.1,0.81-0.12,1.63-0.18,2.45
		c-1.4,1.02-2.21,0.43-2.73-0.98C275.1,276.07,275.07,275.76,275,275.46z"/>
	<path class="st14" d="M341.84,271.46c1.88,2.31,0.59,4.12-0.95,5.88c-0.99,0.09-1.98,0.17-2.97,0.26
		c-2.48-0.05-4.96-0.06-7.44-0.17c-0.87-0.04-2.36,0.28-2.13-1.17c0.17-1.1,1.66-0.71,2.57-0.98c2.27-2.32,6.58,0.47,8.25-3.33
		C339.95,271.18,340.77,270.62,341.84,271.46z"/>
	<path class="st4" d="M169.92,267.72c-2.13-3.4-5.82-2.44-8.9-3.2c-1.3-1.76-0.08-2.89,1-4.06c2.22,1.06,4.94,0.37,7,2
		C169.15,264.24,170.4,265.84,169.92,267.72z"/>
	<path class="st19" d="M104.01,271.3c0.47-1.55-1.01-4.89,1.29-4.88c2.87,0.02,1.22,3.38,1.61,5.26c0.16,0.79,0.08,1.65,0,2.47
		c-0.12,1.27-0.02,3.03-1.89,2.77c-1.53-0.21-0.86-1.87-0.99-2.91C103.93,273.19,104.01,272.36,104.01,271.3z"/>
	<path class="st4" d="M268.9,277.42c0.97,0,1.95,0,3.07,0c-2.93,3.44-4.32,3.96-8.52,3.32c1.18-2.18,5.13,0.17,5.48-3.34
		C268.93,277.4,268.9,277.42,268.9,277.42z"/>
	<path class="st4" d="M257.13,279.49c0.85-3.93,3.87-1.24,5.79-1.89C261.85,280.83,259.56,280.37,257.13,279.49z"/>
	<path class="st4" d="M170.02,262.46c1-1.28,2-1.28,3,0c0,1.66,0,3.31,0,6.06C171.71,265.87,170.86,264.17,170.02,262.46z"/>
	<path class="st4" d="M148.04,264.49c-1.97,0.37-3.93,0.74-5.9,1.1c0,0-0.12-0.17-0.12-0.17c-0.26-2.28,1.71-2.87,3.01-3.96
		c0.33,0.33,0.67,0.67,1,1C146.7,263.14,147.37,263.81,148.04,264.49z"/>
	<path class="st4" d="M275.09,276.38c0.81,0.61,1.63,1.2,2.73,0.98c0.89,0.42,1.12,1.2,1.14,2.09
		C277.21,279,273.81,280.64,275.09,276.38z"/>
	<path class="st4" d="M157.02,261.46c1.33-0.33,2.67-0.67,4-1c0.51,2.44-2.01,2.68-2.96,4.07c0,0,0.03-0.01,0.03-0.01
		c-0.98-0.05-1.95-0.11-3.08-0.17C155.4,263.07,157.38,263.04,157.02,261.46z"/>
	<path class="st20" d="M20.87,272.18c-0.99,0.11-1.57-0.41-1.6-1.32c-0.03-0.67,0.41-1.19,1.18-1.26c0.96-0.09,1.6,0.35,1.6,1.3
		C22.05,271.54,21.64,272.1,20.87,272.18z"/>
	<path class="st21" d="M376.9,272.42c-1.16-1.07-1.65-2.42,0.29-2.76c2.05-0.37,1.62,1.42,1.49,2.7
		C378.09,272.38,377.5,272.4,376.9,272.42z"/>
	<path class="st22" d="M104.29,263.51c0.24-0.3,0.44-0.76,0.78-0.94c0.65-0.33,1.31-0.05,1.53,0.6c0.09,0.26-0.31,0.87-0.63,1.06
		C105.31,264.62,104.78,264.21,104.29,263.51z"/>
	<path class="st4" d="M182.01,264.48c-1.01,0.02-2.01,0.03-3.02,0.05c0.55-1.36,1.55-2.06,3.02-2.07c0.33,0.33,0.67,0.67,1,1
		C182.94,264.06,182.29,264.09,182.01,264.48z"/>
	<path class="st2" d="M377.9,275.45c-0.1-1.35,0.67-1.58,1.78-1.41c0.46,0.07,1.09,0.13,0.8,0.7
		C379.93,275.78,378.81,275.34,377.9,275.45L377.9,275.45z"/>
	<path class="st23" d="M175.21,150.01c-8-8.22-16.13-16.32-24.32-24.34c-5.8-5.68-11.75-5.94-17.59-0.41
		c-8.68,8.22-17.14,16.69-25.5,25.24c-4.58,4.69-4.65,9.66-0.83,15.24c0.8-0.05,0.06-1.14,0.82-1.21c-0.22,0.54,0.08,0.95,0.38,1.34
		c0.41,0.54,0.73,1.09,0.58,1.8c3.73,3.7,7.45,7.4,11.18,11.1c0.69-0.2,1.15-0.65,1.44-1.28c0.09,0,0.18,0,0.27,0
		c-0.01,1.05,0.6,2.11,0.1,3.16c3.88,3.86,7.7,7.79,11.65,11.58c5.61,5.38,11.55,5.53,17.13,0.11c8.35-8.11,16.56-16.35,24.66-24.71
		C180.78,161.84,180.77,155.73,175.21,150.01z"/>
	<path class="st16" d="M293.96,264.49c1.98,0.02,3.96,0.04,5.93,0.06l-0.03-0.02c2.31,1.4,3.79,3.27,2.99,6.12
		c-0.89,3.14-3.58,1.38-5.46,1.84c-0.16,0.04-0.33-0.02-0.5,0c-2.5,0.38-6.65-1.22-7.2,0.98c-0.83,3.29,4.31,0.59,5.45,3.12
		c-7.05,2.22-9.09,0.39-9.17-8.13c-0.54-1.08,0.08-1.84,0.7-2.6c1.3-1.19,2.92-1.7,4.58-2.13
		C292.24,263.62,293.17,263.79,293.96,264.49z"/>
	<path class="st19" d="M324.02,275.45c-0.72,1.15-1.47,2.7-2.7,0.54c-0.44-0.78-0.31-1.92-0.35-2.9c-0.2-5.1-4.88-7.85-9.6-5.47
		c-2.77,1.39-0.98,4.15-1.46,6.25c-0.27,1.18,0.49,3.15-1.41,3.1c-1.6-0.04-1.5-1.89-1.53-3.2c-0.08-2.81-0.2-5.63,1.18-8.24
		c1.74-1.39,3.58-2.21,5.78-1.05c1.32,0.01,2.64,0.03,3.96,0.04c5.42-0.22,7.23,1.27,7.02,6.12
		C324.86,272.25,324.91,273.96,324.02,275.45z"/>
	<path class="st4" d="M324.02,275.45c-0.04-1.14-0.24-2.3-0.09-3.41c0.6-4.64-1.37-7.13-6.02-7.52c1.69-2.21,5.69-0.15,6.78-3.6
		c0.02-0.06,1.19,0.12,1.73,0.38c1.43,0.69,0.31,1.47,0.1,2.34c-0.65,2.77-1.92,5.75,1.48,7.77l-0.02-0.02
		C325.12,271.23,327.58,276.26,324.02,275.45z"/>
	<path class="st16" d="M341.84,271.46c-0.85,0.03-1.58,0.29-1.97,1.12c-3.36,1.99-6.66,1.89-9.91-0.27
		c-0.66-0.31-1.32-0.62-1.98-0.93c0,0,0.02,0.02,0.02,0.02c-1.3-5.81,0.3-7.03,7.51-5.68c-0.21,1.81-1.74,0.97-2.66,1.34
		c-0.87,0.35-2.04,0.12-2.66,1.49C333.32,272.42,338.52,268.53,341.84,271.46z"/>
	<path class="st1" d="M286.87,266.42c-0.3,0.68-0.6,1.36-0.9,2.04c-0.9,0.56-2.17,2.44-2.01-0.6c0.08-1.57,1.26-3.9-2.1-3.35
		c0,0-0.45,0.04-0.45,0.04l-0.44-0.05c-2.77-2.11,0.07-2.83,0.99-4.02c0.33,0,0.67,0,1,0c1.4,1.67,3.21,1.26,5,1
		c1.68,1.65,5.23-0.42,6,3.02c-0.98,0.03-1.96,0.06-2.94,0.1C289.32,264.49,287.46,264.02,286.87,266.42z"/>
	<path class="st1" d="M237.01,264.53c-0.7-1.24-1.9-1.04-3.02-1.07c1.42-4.32,5.11-2.58,8-3c0.39,2.25-1.58,1.18-2.36,1.68
		c1.4,0.44,2.97-1.14,4.36,0.32c-0.89,1.95-3.21,3.42-2.05,6.07C240.82,266.54,239.2,265.18,237.01,264.53z"/>
	<path class="st4" d="M329.96,272.31c3.3,0.09,6.6,0.18,9.91,0.27c0.24,2.23-0.9,2.96-2.96,2.86c-1.99-0.1-3.99-0.1-5.98-0.15
		C330.6,274.3,330.28,273.3,329.96,272.31z"/>
	<path class="st4" d="M299.89,264.54c0.17-3.06-3.52-1.26-4.3-3.69c2.31,0.04,4.71-0.31,6.18,1.5c0.75,0.92-0.56,2.03-1.91,2.18
		C299.86,264.53,299.89,264.54,299.89,264.54z"/>
	<path class="st4" d="M313.95,264.48c-1.93,0.35-3.86,0.7-5.79,1.05c-0.56-0.23-2.24,0.2-1.63-0.28
		C308.63,263.64,311.1,260.51,313.95,264.48z"/>
	<path class="st1" d="M279.13,264.54c-1.06,0.63-2.13,1.25-3.19,1.88c-0.33-0.99-0.66-1.97-0.99-2.96c0.76-1.82,2.29-2.09,4-2
		C280.27,262.42,278.35,263.56,279.13,264.54z"/>
	<path class="st1" d="M269.96,261.46c-2.66,3.39-5.33,2.7-7.99,0C264.63,263.13,267.3,260.79,269.96,261.46z"/>
	<path class="st1" d="M188.97,265.56c-1.11-0.14-2.28-0.1-3.14-1.01c0.41-1.69,2.28-1.89,3.18-3.09c1.03-1.3,1.96-0.79,2.48,0.36
		c0.61,1.35-0.56,1.46-1.48,1.64C189.43,264.04,189.83,265.11,188.97,265.56z"/>
	<path class="st4" d="M189.01,261.46c-0.29,1.82-1.34,2.85-3.17,3.09c0,0-0.42,0.04-0.42,0.04l-0.41-0.07
		c-0.73-1.02-0.67-2.04,0-3.05C186.34,261.46,187.67,261.46,189.01,261.46z"/>
	<path class="st4" d="M279.13,264.54c-3.67-0.82,1.38-2.14-0.18-3.08c0.72-1.17,1.9-0.97,3-1c0.32,1.5-2.34,2.27-0.99,4.02
		C280.35,264.5,279.74,264.52,279.13,264.54z"/>
	<path class="st1" d="M206.13,262.98c-1.47,0.3-2.86,1.52-4.34,0.48c-0.61-0.43-0.06-1.18,0.4-1.63
		C204.15,259.9,204.63,263.14,206.13,262.98z"/>
	<path class="st4" d="M243.98,262.46c-1.99-0.17-4.08,1.2-6.06-0.48c1.13-1.16,3.2,0.16,4.06-1.52
		C243.28,260.49,243.94,261.16,243.98,262.46z"/>
	<path class="st1" d="M190.09,275.41c-0.07-2.97-0.13-5.95-0.2-8.92c0.36-0.35,0.73-0.38,1.11-0.03
		C191.2,269.49,191.6,272.55,190.09,275.41z"/>
	<path class="st1" d="M158.06,264.53c-0.2-2.22,2.54-2.3,2.96-4.07c0.33,0,0.67,0,1,0c-0.33,1.35-0.67,2.71-1,4.06
		C160.03,264.53,159.05,264.53,158.06,264.53z"/>
	<path class="st1" d="M145.03,261.46c-1,1.32-2.01,2.64-3.01,3.96C141.15,262.68,141.93,261.19,145.03,261.46z"/>
	<path class="st4" d="M287.95,261.46c-2.1,1.84-3.82,1.76-5-1C284.52,261.3,286.49,260.08,287.95,261.46z"/>
	<path class="st4" d="M314.69,260.82c1.37,0.29,2.73,0.57,4.1,0.86C317.3,262.39,315.83,262.8,314.69,260.82z"/>
	<path class="st1" d="M203.85,266.5c-0.03,1.38,0.31,2.82-0.77,4C200.61,268.63,201.59,267.44,203.85,266.5z"/>
	<path class="st1" d="M209.97,264.54c-0.66,0-1.32,0-1.97,0c0.15-1.99,1.36-2.3,3.01-1.89
		C210.66,263.28,210.31,263.91,209.97,264.54z"/>
	<path class="st24" d="M191.01,266.46c-0.37,0.01-0.74,0.02-1.11,0.03c-0.31-0.31-0.62-0.62-0.93-0.93c0.05-0.85,0.2-1.64,1.03-2.1
		C190.34,264.46,190.67,265.46,191.01,266.46z"/>
	<path class="st4" d="M330.64,262.76c-0.14,0.41-0.22,0.94-0.32,0.94c-0.79,0.03-1.13-0.59-1.22-1.23
		c-0.05-0.37,0.25-0.79,0.39-1.18C329.9,261.8,330.29,262.31,330.64,262.76z"/>
	<path class="st1" d="M185.01,261.46c0,1.02,0,2.04,0,3.05c-1-0.01-2-0.02-3-0.04c0.33-0.34,0.67-0.68,1-1.02
		C183.68,262.79,184.34,262.13,185.01,261.46z"/>
	<path class="st4" d="M333.52,261.84c0.09,0.72-0.1,1.23-0.65,1.12c-0.32-0.06-0.64-0.61-0.78-1c-0.07-0.2,0.25-0.54,0.39-0.82
		C332.86,261.39,333.24,261.65,333.52,261.84z"/>
	<path class="st1" d="M220.99,260.46c-0.02,1.05-0.04,2.1-0.06,3.15c-0.79-0.97-1.27-2.35-2.89-2.28
		C218.79,260.27,219.93,260.5,220.99,260.46z"/>
	<path class="st1" d="M132.93,264.75c-0.63-0.08-1.25-0.15-1.88-0.23c-0.07-0.66-0.96-1.65,0.22-1.88
		C132.76,262.36,133,263.55,132.93,264.75z"/>
	<path class="st1" d="M209,259.46c0.67,0,1.33,0,2,0c0.11,0.67,0.95,1.63-0.35,1.85C209.39,261.53,209.1,260.49,209,259.46z"/>
	<path class="st3" d="M278.61,209.84c-0.05-1.92,0.25-4.31-2.79-4.31c-3.07-0.01-2.87,2.38-2.69,4.29c0.32,3.22-1.09,3.93-4.03,3.84
		c-5.32-0.16-10.67-0.23-15.96,0.17c-9.98,0.75-12.03,3.15-12.05,13.02c0,1.83,0.04,3.66-0.01,5.49c-0.12,4.23,1.75,7.22,5.88,8.08
		c8.53,1.77,17.16,1.77,25.69-0.03c3.61-0.76,5.74-3.33,5.85-7.14c0.12-3.98,0.03-7.97,0.03-11.95c0.04,0,0.07,0,0.11,0
		C278.64,217.48,278.7,213.66,278.61,209.84z M258.83,236.79c-2.16,0-4.32-0.11-6.47,0c-3.28,0.17-5.38-1.19-6.26-4.37
		c-0.75-0.59-0.59-1.17,0.01-1.75c0.19-0.79,0.55-1.58,0.54-2.37c-0.09-9.52,0.34-9.98,9.6-9.95c4.64,0.01,9.29,0.08,13.93-0.01
		c2.12-0.04,3.12,0.72,2.9,2.88c-0.02,0.16,0,0.33,0,0.5C272.84,237.62,275.46,236.82,258.83,236.79z"/>
	<path class="st3" d="M224.03,214.25c-5.11-1.11-10.31-0.98-15.37-0.52c-11.56,1.05-14.49,2.04-13.67,14.24c0.06,0.83,0,1.66,0,2.49
		c0,7.23,1.74,9.47,8.84,10.69c2.43,0.42,4.96,0.31,7.44,0.31c1.54-0.01,3.61,0.56,3.67-2.07c0.06-2.61-2.1-2.16-3.59-2.32
		c-2.78-0.31-5.61-0.24-8.37-0.62c-2.06-0.29-3.01-1.75-2.99-3.92c0.03-2.75,2-2.12,3.53-2.14c3.98-0.06,7.97-0.02,11.95-0.01
		c4.15,0,8.3,0,12.45,0.01c1.57,0.01,2.97-0.2,3.71-1.87C234.33,222.45,230.64,215.69,224.03,214.25z M222.49,225.54
		c-3.13,0.23-6.29,0.07-9.44,0.07s-6.3,0.07-9.44-0.04c-1.31-0.05-3.23,0.77-3.53-1.56c-0.27-2.07-0.06-3.88,2.3-4.9
		c2.09-0.9,4.21-0.73,6.34-0.74c4.47-0.03,8.95,0.05,13.42,0c3.46-0.04,4.73,2.03,4.77,5.03
		C226.95,226.89,224.11,225.42,222.49,225.54z"/>
	<path class="st3" d="M338.29,228.09c-0.22-1.64-0.06-3.33-0.04-4.99c0.07-4.97-2.56-7.69-7.25-8.63
		c-6.09-1.22-12.25-1.29-18.37-0.42c-9.46,1.34-10.69,2.91-10.7,12.56c0,2,0.05,4-0.03,5.99c-0.16,4.11,2.02,6.42,5.65,7.82
		c4.03,1.55,8.21,0.87,11.92,1.05c2.25,0,4.08-0.01,5.91,0C334.18,241.53,339.75,238.97,338.29,228.09z M320.32,236.8
		c-0.5,0-0.99-0.01-1.49,0c-13.9,0.26-11.57-0.92-11.9-13.01c-0.09-3.31,1.74-5.09,4.72-5.23c5.61-0.26,11.25-0.24,16.87-0.06
		c2.79,0.09,4.67,1.59,4.4,4.78c-0.01,0.16-0.01,0.33,0,0.5C333.37,236.8,333.37,236.8,320.32,236.8z"/>
	<path class="st25" d="M247.19,189.27c0.06-12.46,0-12.46-11.22-16.62c-1.65,0.03-3.3,0.07-4.96,0.1c-1.92,0.02-3.67,0.61-5.27,1.65
		c0,0,0,0-0.01,0c-0.75,0.02-1.47,0.1-1.81,0.93c0,0,0,0,0,0c-2.34,2.26-4.03-0.7-6.08-0.76c0,0,0,0,0,0c0,0,0,0,0,0
		c-1.66-1.52-3.76-1.7-5.85-1.9v0c-1.31,0-2.63,0-3.94,0l0,0c-9.52,0.33-12.39,3.23-12.24,12.39c0.02,1.15,0.14,2.29,0.22,3.44
		c-0.01,0.66-0.01,1.33-0.02,1.99c-0.05,1.26-0.11,2.51-0.16,3.77c-0.74,1.75-1.09,3.48-0.26,5.17c0.04,0.28,0.18,0.55,0.48,0.79
		c0,0,0,0,0,0c0,0,0,0,0,0c0,0,0,0,0,0c3.46,1.21,4.91-0.06,4.76-3.66c-0.13-3.28-0.06-6.57-0.06-9.86c0-8.25,0.01-8.25,8.24-10.13
		c0,0,0.39,0.13,0.39,0.13s0.39-0.11,0.4-0.11c0,0,0,0,0,0c0.59,0.24,1.16,0.59,1.78,0.71c7.08,1.34,7.07,1.33,7.17,8.32
		c0.01,0.97,0.11,1.94,0.17,2.9c-0.05,3.3-0.13,6.61-0.14,9.91c0,1.74,0.91,2.92,2.67,2.9c1.71-0.02,2.83-0.9,2.36-2.88
		c0-1.99,0-3.99,0-5.98c0.02-3.33,0.05-6.67,0.07-10l0,0c0.11-1.24,0.23-2.48,0.34-3.71c0.59-0.12,1.17-0.24,1.76-0.37
		c1.74-0.59,3.48-1.18,5.23-1.77c0,0,0,0,0,0c1.49,0,2.97,0,4.46-0.01c0.26,0.14,0.54,0.22,0.84,0.28c1.49,0.49,2.98,0.99,4.47,1.48
		v0c1.42,1.5,1.08,3.36,1.08,5.17c0,4.79,0.08,9.59,0.04,14.38c-0.02,1.75,0.59,2.97,2.35,3.16c1.66,0.18,3.01-0.33,2.63-2.49
		C248.39,195.51,247.17,192.37,247.19,189.27z"/>
	<path class="st26" d="M295.08,179.16C295.08,179.16,295.08,179.16,295.08,179.16c-1.41-1.49-0.87-4.54-3.84-4.77
		c-2.24-1.43-4.65-2.18-7.33-1.73c0,0,0,0,0,0c-1.65,0-3.29,0-4.94,0.01c-1.79-0.31-2.69,0.93-2.42,2.24
		c0.52,2.5,2.69,1.72,4.42,1.6c0,0,0,0,0,0c0,0,0,0,0,0c0.32,0.01,0.65,0.03,0.97,0.04l0,0c1.29,0.03,2.58,0.05,3.87,0.08
		c0,0,0,0,0,0l0,0c0,0,0,0,0,0c0,0,0,0,0,0l0.05-0.04c1.31,0.67,2.62,1.33,3.93,2c0.3,2.28-1.3,2.02-2.76,2.11
		c-2.71,0.17-5.48-0.39-8.1,0.75c0,0,0,0,0,0c-5.78-0.12-11.6-1.12-17.27,0.9c-6.65,1.86-6.04,7.01-5.5,12.13
		c0.62,4.59,3.77,5.83,7.8,5.91c1.34,0.05,2.67,0.11,4.01,0.16c1.32-0.01,2.65-0.01,3.97-0.02l0,0c4.67,0.38,9.33,0.42,14-0.02
		c2.23-0.01,4.67,0.6,6.04-2.01h0c0,0,0,0,0,0c0.56-1.01,2.57-0.88,2.1-2.69c0,0,0,0,0,0c0.77-0.29,1.66-0.63,1.64-1.58
		C295.62,189.2,296.66,184.12,295.08,179.16z M281.81,195.07c-5.46,0.1-10.94-0.36-16.39,0.33c-0.53,0.15-1.03,0.37-1.48,0.7
		c0,0-0.01,0.01-0.01,0.02c-1.13-2.76-1.39-5.7-1.77-8.61c0.25-0.31,0.51-0.63,0.73-0.97c0.06-0.09,0.11-0.17,0.16-0.26
		c4.8-1.27,9.68-1.08,14.56-0.9c3.99,0.65,7.99,0.69,11.99,0.39c1.27,0.61,1.18,2.16,0.92,5.78c-0.04,0.53-0.17,1.05-0.32,1.57
		c-0.38,0.22-0.76,0.43-1.16,0.53C286.79,194.94,284.32,195.03,281.81,195.07z"/>
	<path class="st27" d="M333.93,185.49L333.93,185.49c-6.87-2.02-13.92-0.62-20.87-1.07c0,0,0,0,0,0c-0.99-0.67-1.98-1.34-2.97-2.02
		c-0.08-1.3-0.16-2.61-0.23-3.91c0.36-0.35,0.72-0.7,1.08-1.05c3.23-1.36,6.69-0.42,10-0.97c1.54,0.28,3.13,0.13,3.39-1.63
		c0.2-1.36-0.77-2.39-2.42-2.2c-1.32,0.01-2.64,0.02-3.96,0.02c-0.68,0-1.36,0.01-2.04,0.01c-1.43-0.35-2.78-0.24-3.96,0.75
		c0,0,0,0,0,0c-1.21-0.19-2.26,0.14-3.15,0.99c0,0,0,0,0,0c-0.34-0.08-0.62,0.01-0.84,0.27c-4.19,4.12-4.2,7.58-0.03,11.82
		c0,0,0,0,0,0l0.02,0.01c1.15,1.01,2.51,1.52,4.02,1.7v0c6.61,0.12,13.22,0.24,19.83,0.36c0,0,0,0,0,0
		c0.69,0.69,1.38,1.38,2.07,2.07c0.05,0.62,0.1,1.24,0.15,1.85c-0.11,1.66-1.05,2.85-2.21,3.93c0,0,0,0,0,0
		c-1.95,0.07-3.91,0.15-5.86,0.22l0,0c-3.67,0-7.33,0-11,0c-1.99,0-3.99,0.01-5.98,0.01c-1.41-0.01-2.95-0.77-4.12,0.7
		c-1.34,2.42-0.49,3.38,2.11,3.18c0,0,0,0,0,0c0,0,0,0,0,0c5,0.03,10,0.05,14.99,0.08c0,0,0,0,0,0c1.34-0.03,2.68-0.05,4.02-0.08
		c0,0,0,0,0,0c0,0,0,0,0,0c3.81,0.13,7.79,1.13,10.92-2.15C341.31,193.82,339.93,187.77,333.93,185.49z"/>
	<path class="st28" d="M119.04,192.43L119.04,192.43C119.04,192.43,119.04,192.43,119.04,192.43c-3.18-4.43-6.6-8.64-10.99-11.95
		c-1.32-1.33-2.64-2.66-3.96-3.99c-1.29-1.82-2.54-3.69-4.92-4.24c-0.33-0.34-0.66-0.69-0.99-1.03c0,0,0,0,0,0
		c-6.79-8.12-6.78-15.47,0.04-24.56c0,0,0,0,0,0l0,0c0,0,0,0,0,0c-0.02-0.01-0.03,0-0.04-0.01c1.64-1.05,3.23-2.15,3.87-4.13h0
		c0.47-0.6,0.93-1.21,1.4-1.81c0,0,0,0,0,0c0.65-0.69,1.31-1.38,1.96-2.08c0,0,0,0,0,0c5.1-4.09,5.1-4.09,0.44-8.58
		c-0.57-0.55-1.24-1-1.86-1.5c-0.98-1.68-2.33-3-3.99-4c-1.02-1.65-2.38-2.95-3.98-4.01c-2.51-3.2-5.31-6.08-8.95-8.02
		c-1.64-1.62-3.67-2.11-5.9-2.03c-0.14-0.12-0.28-0.18-0.41-0.21c-1.93-1-3.87-0.91-5.8,0.2c0,0,0,0,0,0
		c-0.62,0.06-1.24,0.13-1.87,0.19v0c-1.7-0.15-2.94,0.73-4.07,1.84c0,0,0,0,0,0c-1.45,1.56-4.2,1.36-5.06,3.72c0,0,0,0,0,0
		c-6.18,4.9-11.46,10.72-16.81,16.48c0,0,0,0,0,0c0,0,0,0,0,0c-2.46,1.47-4.35,3.51-5.93,5.86c0,0,0,0,0,0c0,0,0,0,0,0
		c-3.35,3.38-6.7,6.75-10.06,10.13c-2.45,1.48-4.36,3.5-5.93,5.87c0,0,0,0,0,0c0,0,0,0,0,0c-3.74,3.67-7.67,7.22-8.13,12.95
		c-1.54,2.33-1.35,4.71-0.22,7.11c0,0,0,0,0,0c0.08,2.22,0.72,4.23,2.17,5.95c0,0,0,0,0,0c-0.16,1.55,0.83,2.38,1.96,3.12
		c0.31,0.29,0.62,0.59,0.92,0.88c0,0,0,0,0,0c1.23,1.49,2.01,3.44,4.12,4.02c0,0,0,0,0,0c1.6,2.37,3.57,4.37,5.95,5.96
		c2.98,3.71,6.25,7.13,10.04,10.04c1.59,2.35,3.57,4.3,5.89,5.93c0,0,0,0,0,0c3.02,3.68,6.3,7.11,10.06,10.06h0
		c1.59,2.44,3.78,4.3,5.96,6.17c0,0,0,0,0,0c0.68,1.3,1.59,2.31,3.15,2.53c0.67,0.39,1.34,0.78,2.01,1.17h0c0,0,0,0,0,0
		c0.09,0.09,0.19,0.16,0.29,0.22c1.66,1.3,3.52,1.97,5.68,1.72c0,0,0,0,0,0c0,0,0,0,0,0c0.66,0.07,1.32,0.14,1.97,0.22
		c3.32,0.4,6.51,0.25,9.23-2.04c0,0,0,0,0,0c2.43-0.36,3.64-2.2,4.88-4.01l0,0c0.31-0.04,0.6-0.15,0.85-0.33c0,0,0,0,0,0
		c1.8-0.75,3.06-2.06,3.9-3.8c0,0,0,0,0,0c0,0,0,0,0,0c0.71-0.82,1.32-1.78,2.15-2.44c6.38-5.09,12.01-10.91,17.07-17.3
		c0.32-0.07,0.62-0.2,0.89-0.38c1.84-0.75,2.98-2.22,3.98-3.83h0l0,0C123.83,195.8,121.89,194.04,119.04,192.43z M71.08,112.72
		c-0.02-0.04-0.04-0.09-0.05-0.14c0.03,0,0.06,0,0.09,0C71.1,112.63,71.09,112.67,71.08,112.72z M86.13,170.19
		c-0.02,0.1-0.04,0.21-0.07,0.31v0l0,0c-0.07-0.1-0.12-0.2-0.18-0.3C85.96,170.2,86.05,170.19,86.13,170.19z M85.56,230.6
		c0.25-0.04,0.49-0.05,0.72-0.02C86.04,230.59,85.8,230.59,85.56,230.6z M88.06,162.49c-0.01,0.01-0.01,0.01-0.02,0.02
		c0,0-0.01,0-0.01,0.01C88.04,162.51,88.05,162.5,88.06,162.49C88.06,162.49,88.06,162.49,88.06,162.49z M101.56,180.8
		c0.74,0.69,1.44,1.48,2.44,1.69c-1.23,0.14-2.01-0.78-2.84-1.58C101.29,180.89,101.43,180.86,101.56,180.8z"/>
	<path class="st2" d="M210.4,275.48c-2.01,0.15-4.49-0.08-4.46-4.34c0.04-5.63,4.13-3.5,6.8-3.76c2.48-0.24,5.42-0.97,5.32,3.55
		C217.95,275.94,214.64,275.34,210.4,275.48z"/>
	<path class="st29" d="M263.42,275.28c-4.23,0.4-6.57,0.49-6.56-3.94c0.02-5.95,4.41-3.69,7.06-4.17c2.85-0.51,5.03,0.53,5,4.29
		C268.86,276.88,264.93,275.01,263.42,275.28z"/>
	<path class="st30" d="M353.4,275.56c-1.97-0.46-4.08,0.72-5.27-1.29c-0.65-1.1-0.44-2.56,0.75-3.03c3.31-1.3,6.83-1.02,10.19-0.25
		c1.25,0.29,1.11,2.02,0.47,3.01C357.93,276.5,355.26,274.91,353.4,275.56z"/>
	<path class="st1" d="M129.67,267.32c2.37,0.21,5.53-0.92,5.51,3.81c-0.02,4.65-2.87,4.3-5.93,4.33c-2.97,0.04-5.39,0.21-5.37-4.18
		C123.89,266.68,126.73,267.39,129.67,267.32z"/>
	<path class="st29" d="M181.07,275.45c-2.02,0.05-5.1,0.49-5.02-4.24c0.08-4.51,3.14-3.85,5.88-3.88c2.96-0.04,6.16-0.58,6.03,4.21
		C187.85,276,184.87,275.41,181.07,275.45z"/>
	<path class="st31" d="M232.59,270.42c-1.51-0.7-4.99,1.36-5.06-1.47c-0.06-2.65,3.49-2.07,5.66-2.37c0.49-0.07,0.99-0.05,1.48,0.01
		c1.63,0.17,3.84,0.16,3.95,2.12c0.15,2.71-2.36,1.36-3.74,1.68C234.25,270.54,233.56,270.42,232.59,270.42z"/>
	<path class="st31" d="M160.37,270.42c-1.42-0.58-4.59,1.22-4.66-1.36c-0.07-2.38,3.11-2.31,5.23-2.48
		c0.33-0.03,0.69-0.06,0.99,0.03c1.76,0.54,4.83-0.16,4.74,2.37c-0.08,2.49-2.93,1.04-4.53,1.42
		C161.67,270.52,161.15,270.42,160.37,270.42z"/>
	<path class="st4" d="M66,268.29c1.08-1.34,2.57-0.89,3.95-0.89c0.98-0.61,1.85-0.51,2.45,0.51c1.17,1.98,1.76,4.33,3.8,5.73
		c-1.35,3.18-4.07,1.29-6.18,1.68C65.22,274.96,64.97,271.99,66,268.29z"/>
	<path class="st30" d="M76.21,273.64c-1.41-0.6-3.51-0.08-3.57-2.85c-0.01-0.53-0.31-3.48-2.69-3.39
		C76.09,266.21,77.76,267.87,76.21,273.64z"/>
	<path class="st30" d="M66,268.29c-0.44,3.36,0.51,5.93,4.03,7.02C64.87,275.1,64.23,273.99,66,268.29z"/>
	<path class="st1" d="M295.22,270.34c-1.05,0-1.73,0.08-2.38-0.02c-1.33-0.19-3.56,0.74-3.57-1.41c-0.01-2.07,2.22-1.34,3.58-1.55
		c0.49-0.08,0.99-0.04,1.49-0.07c2.24-0.14,5.76-0.96,5.81,1.73C300.21,271.76,296.63,269.58,295.22,270.34z"/>
	<path class="st2" d="M286.87,266.42c-1.03-0.91-0.72-1.77,0.25-2.37c1.38-0.84,2.78-0.96,3.9,0.53
		C289.63,265.19,288.25,265.8,286.87,266.42z"/>
</g>
</svg>
